<?xml version="1.0" encoding="utf-8"?><svg xmlns="http://www.w3.org/2000/svg" xmlns:xlink="http://www.w3.org/1999/xlink"><symbol viewBox="0 0 7.9375 13.229166" id="control"><path d="M7.937 0L0 6.615l7.937 6.614v-1.102L1.323 6.615l6.614-5.513z"/></symbol><symbol viewBox="0 0 485 485" id="facebook"><path d="M200.767 400h65.266V242.413h43.798s4.104-25.428 6.103-53.235h-49.647v-36.264c0-5.416 7.109-12.696 14.153-12.696h35.564V85h-48.366c-68.478 0-66.872 53.082-66.872 61.009v43.356h-31.771v53.029h31.771V400z"/><path d="M0 0v485h485V0H0zm455 455H30V30h425v425z"/></symbol><symbol viewBox="0 0 112.196 112.196" id="fb_round"><circle cx="56.098" cy="56.098" r="56.098"/><path d="M70.201 58.294h-10.01v36.672H45.025V58.294h-7.213V45.406h7.213v-8.34c0-5.964 2.833-15.303 15.301-15.303l11.234.047v12.51h-8.151c-1.337 0-3.217.668-3.217 3.513v7.585h11.334l-1.325 12.876z"/></symbol><symbol viewBox="0 0 89.758 89.758" id="inst_round"><path d="M58.255 23.88H31.503c-4.27 0-7.744 3.474-7.744 7.744v26.752c0 4.27 3.474 7.745 7.744 7.745h26.752c4.27 0 7.745-3.474 7.745-7.745V31.624c0-4.27-3.474-7.744-7.745-7.744zM44.879 58.906c-7.667 0-13.905-6.238-13.905-13.906 0-7.667 6.238-13.905 13.905-13.905 7.668 0 13.906 6.238 13.906 13.905 0 7.667-6.239 13.906-13.906 13.906zM59.232 33.97a3.294 3.294 0 0 1-3.291-3.29 3.294 3.294 0 0 1 3.291-3.29 3.294 3.294 0 0 1 3.29 3.29 3.294 3.294 0 0 1-3.29 3.29z"/><path d="M44.879 36.971c-4.426 0-8.03 3.602-8.03 8.028 0 4.428 3.604 8.031 8.03 8.031 4.428 0 8.029-3.603 8.029-8.031 0-4.425-3.602-8.028-8.029-8.028z"/><path d="M44.879 0C20.094 0 0 20.094 0 44.879c0 24.785 20.094 44.879 44.879 44.879 24.785 0 44.879-20.094 44.879-44.879C89.758 20.094 69.664 0 44.879 0zm26.996 58.376c0 7.511-6.109 13.62-13.62 13.62H31.503c-7.51 0-13.62-6.109-13.62-13.62V31.624c0-7.51 6.11-13.62 13.62-13.62h26.752c7.511 0 13.62 6.11 13.62 13.62v26.752z"/></symbol><symbol viewBox="0 0 388 388" id="instagram"><path d="M0 0v388h388V0H0zm364 364H24V24h340v340zm0 0"/><path d="M256.424 68.037H131.577c-35.049 0-63.561 28.512-63.561 63.561v124.846c0 35.053 28.512 63.561 63.561 63.561h124.847c35.052 0 63.56-28.508 63.56-63.561V131.598c0-35.049-28.508-63.561-63.56-63.561zm36.142 188.408c0 19.929-16.214 36.143-36.142 36.143H131.577c-19.925 0-36.139-16.214-36.139-36.143V131.598c0-19.925 16.214-36.139 36.139-36.139h124.847c19.928 0 36.142 16.213 36.142 36.139v124.847z"/><path d="M260.982 142.547c-8.471 0-15.359-6.888-15.359-15.354 0-8.467 6.888-15.355 15.359-15.355 8.466 0 15.354 6.888 15.354 15.355 0 8.466-6.888 15.354-15.354 15.354zm-66.984-13.42c-35.779 0-64.892 29.113-64.892 64.892 0 35.783 29.113 64.896 64.892 64.896 35.783 0 64.896-29.113 64.896-64.896 0-35.778-29.113-64.892-64.896-64.892zm0 102.372c-20.655 0-37.475-16.816-37.475-37.479 0-20.655 16.82-37.467 37.475-37.467 20.663 0 37.471 16.812 37.471 37.467 0 20.662-16.808 37.479-37.471 37.479z"/></symbol><symbol viewBox="0 0 451 451" id="search"><path d="M447.05 428l-109.6-109.6c29.4-33.8 47.2-77.9 47.2-126.1C384.65 86.2 298.35 0 192.35 0 86.25 0 .05 86.3.05 192.3s86.3 192.3 192.3 192.3c48.2 0 92.3-17.8 126.1-47.2L428.05 447c2.6 2.6 6.1 4 9.5 4s6.9-1.3 9.5-4c5.2-5.2 5.2-13.8 0-19zM26.95 192.3c0-91.2 74.2-165.3 165.3-165.3 91.2 0 165.3 74.2 165.3 165.3s-74.1 165.4-165.3 165.4c-91.1 0-165.3-74.2-165.3-165.4z"/></symbol><symbol viewBox="0 0 485 485" id="vk"><path d="M144.753 275.964c12.162 16.477 26.132 31.049 44.184 41.356 20.441 11.683 42.451 15.209 65.659 14.134 10.847-.52 14.108-3.347 14.607-14.154.336-7.403 1.192-14.786 4.835-21.435 3.582-6.527 9.018-7.76 15.285-3.699 3.123 2.048 5.752 4.616 8.239 7.362 6.109 6.669 12.024 13.573 18.352 20.023 7.958 8.101 17.394 12.875 29.235 11.902l45.875.02c7.383-.499 11.224-9.553 6.985-17.817-2.986-5.768-6.904-10.903-11.046-15.881-9.375-11.265-20.421-20.859-30.865-31.049-9.416-9.191-10.012-14.526-2.451-25.134 8.279-11.586 17.155-22.708 25.495-34.233 7.78-10.766 15.764-21.516 19.84-34.391 2.609-8.218.301-11.841-8.096-13.293-1.452-.239-2.965-.239-4.438-.239l-49.916-.061c-6.15-.097-9.533 2.588-11.703 8.04-2.945 7.367-5.971 14.73-9.477 21.817-7.917 16.121-16.778 31.701-29.194 44.877-2.746 2.904-5.793 6.588-10.368 5.075-5.711-2.089-7.403-11.52-7.306-14.704l-.041-57.619c-1.111-8.218-2.945-11.902-11.122-13.497h-51.847c-6.904 0-10.389 2.69-14.093 7.006-2.109 2.512-2.767 4.122 1.615 4.958 8.595 1.63 13.471 7.204 14.745 15.825 2.053 13.792 1.911 27.64.718 41.473-.336 4.04-1.034 8.06-2.629 11.841-2.507 5.951-6.567 7.148-11.881 3.485-4.794-3.302-8.177-7.958-11.504-12.636-12.437-17.578-22.347-36.521-30.448-56.427-2.329-5.752-6.369-9.232-12.458-9.334-14.969-.239-29.953-.275-44.943.02-8.993.158-11.683 4.54-7.999 12.717 16.3 36.281 34.454 71.548 58.156 103.672z"/><path d="M0 0v485h485V0H0zm455 455H30V30h425v425z"/></symbol><symbol viewBox="0 0 112.196 112.196" id="vk_round"><circle cx="56.098" cy="56.098" r="56.098"/><path d="M53.979 80.702h4.403s1.33-.146 2.009-.878c.625-.672.605-1.934.605-1.934s-.086-5.908 2.656-6.778c2.703-.857 6.174 5.71 9.853 8.235 2.782 1.911 4.896 1.492 4.896 1.492l9.837-.137s5.146-.317 2.706-4.363c-.2-.331-1.421-2.993-7.314-8.463-6.168-5.725-5.342-4.799 2.088-14.702 4.525-6.031 6.334-9.713 5.769-11.29-.539-1.502-3.867-1.105-3.867-1.105l-11.076.069s-.821-.112-1.43.252c-.595.357-.978 1.189-.978 1.189s-1.753 4.667-4.091 8.636c-4.932 8.375-6.904 8.817-7.71 8.297-1.875-1.212-1.407-4.869-1.407-7.467 0-8.116 1.231-11.5-2.397-12.376-1.204-.291-2.09-.483-5.169-.514-3.952-.041-7.297.012-9.191.94-1.26.617-2.232 1.992-1.64 2.071.732.098 2.39.447 3.269 1.644 1.135 1.544 1.095 5.012 1.095 5.012s.652 9.554-1.523 10.741c-1.493.814-3.541-.848-7.938-8.446-2.253-3.892-3.954-8.194-3.954-8.194s-.328-.804-.913-1.234c-.71-.521-1.702-.687-1.702-.687l-10.525.069s-1.58.044-2.16.731c-.516.611-.041 1.875-.041 1.875s8.24 19.278 17.57 28.993c8.555 8.907 18.27 8.322 18.27 8.322z" fill-rule="evenodd" clip-rule="evenodd"/></symbol></svg>